<svg height="24" width="24" xmlns="http://www.w3.org/2000/svg"><path d="M 3.0164774,18.754729 18.953461,3.0781216" fill="none" stroke="#e0572b" stroke-linecap="round" stroke-linejoin="round" stroke-width="2"/><g transform="translate(33)"><rect fill="#c4a000" height="11" rx="2.0114901" width="11" x="-20" y="13"/><g fill="#fcffff"><path d="m -15,14 v 2.0625 c -0.537663,0.111041 -1.024662,0.383291 -1.375,0.78125 l -1.78125,-1.03125 -0.5,0.875 1.78125,1.03125 C -16.957063,17.966182 -17,18.225145 -17,18.5 c 0,0.274855 0.04294,0.533818 0.125,0.78125 l -1.78125,1.03125 0.5,0.875 1.78125,-1.03125 c 0.352503,0.40042 0.832682,0.670182 1.375,0.78125 V 23 h 1 v -2.0625 c 0.537663,-0.111041 1.024662,-0.383291 1.375,-0.78125 l 1.78125,1.03125 0.5,-0.875 -1.78125,-1.03125 C -12.042937,19.033818 -12,18.774855 -12,18.5 c 0,-0.274855 -0.04294,-0.533818 -0.125,-0.78125 l 1.78125,-1.03125 -0.5,-0.875 -1.78125,1.03125 C -12.977503,16.44333 -13.457682,16.173568 -14,16.0625 V 14 Z m 0.5,3.5 c 0.552,0 1,0.448 1,1 0,0.552 -0.448,1 -1,1 -0.552,0 -1,-0.448 -1,-1 0,-0.552 0.448,-1 1,-1 z"/><path d="m -19,19 9,-0.0096 c 0,0 0,0 0,-2 C -10,14 -11,14 -14.5,14 -18,14 -19,14 -19,17 Z" fill-rule="evenodd" opacity="0.3"/></g></g><path d="M 10.480793,3.6000574 20.751557,0.89011661 17.934734,11.053999 Z" fill="#ff8a00" fill-opacity=".993469" stroke-linecap="round" stroke-linejoin="round" stroke-miterlimit="10" paint-order="markers fill stroke" stroke="#e0572b"/></svg>