<?xml version="1.0" encoding="UTF-8" standalone="no"?>
<svg
   height="24"
   width="24"
   fill="#000000"
   version="1.1"
   x="0px"
   y="0px"
   viewBox="0 0 24 24"
   enable-background="new 0 0 100 100"
   xml:space="preserve"
   id="svg10"
   sodipodi:docname="plugin.svg"
   inkscape:version="1.1-dev (ad50a96bda, 2021-01-04)"
   xmlns:inkscape="http://www.inkscape.org/namespaces/inkscape"
   xmlns:sodipodi="http://sodipodi.sourceforge.net/DTD/sodipodi-0.dtd"
   xmlns:xlink="http://www.w3.org/1999/xlink"
   xmlns="http://www.w3.org/2000/svg"
   xmlns:svg="http://www.w3.org/2000/svg"><defs
     id="defs14"><linearGradient
       inkscape:collect="always"
       id="linearGradient10871"><stop
         style="stop-color:#b3b3b3;stop-opacity:1;"
         offset="0"
         id="stop10867" /><stop
         style="stop-color:#eeeeee;stop-opacity:1"
         offset="1"
         id="stop10869" /></linearGradient><linearGradient
       inkscape:collect="always"
       id="linearGradient10305"><stop
         style="stop-color:#f47e7e;stop-opacity:1;"
         offset="0"
         id="stop10301" /><stop
         style="stop-color:#e7b2b2;stop-opacity:1"
         offset="1"
         id="stop10303" /></linearGradient><linearGradient
       inkscape:collect="always"
       xlink:href="#linearGradient10305"
       id="linearGradient10307"
       x1="18"
       y1="21.42861"
       x2="7.4249606"
       y2="4"
       gradientUnits="userSpaceOnUse" /><linearGradient
       inkscape:collect="always"
       xlink:href="#linearGradient10871"
       id="linearGradient10873"
       x1="63.966923"
       y1="51.589085"
       x2="60.218811"
       y2="51.663551"
       gradientUnits="userSpaceOnUse" /></defs><sodipodi:namedview
     id="namedview12"
     pagecolor="#ffffff"
     bordercolor="#666666"
     borderopacity="1.0"
     objecttolerance="10.0"
     gridtolerance="10.0"
     guidetolerance="10.0"
     inkscape:pageshadow="2"
     inkscape:pageopacity="0.0"
     inkscape:pagecheckerboard="false"
     showgrid="true"
     inkscape:zoom="34.92"
     inkscape:cx="12.328179"
     inkscape:cy="6.3001146"
     inkscape:current-layer="svg10"><inkscape:grid
       type="xygrid"
       id="grid16" /></sodipodi:namedview><rect
     x="17.000458"
     y="4.4318466"
     width="2.999543"
     height="3.4749475"
     id="rect4"
     style="fill:#b3b3b3;fill-opacity:1;stroke:#666666;stroke-width:1;stroke-opacity:1" /><polygon
     points="67,60 68,60 69,60 69,43 67,43 66,43 65,43 63,43 62,43 61,43 59,43 59,60 60,60 61,60 62,60 63,60 65,60 66,60 "
     id="polygon2"
     transform="matrix(0.39670041,0,0,0.44056525,-6.8888263,-10.944306)"
     style="fill:url(#linearGradient10873);fill-opacity:1;stroke:#666666;stroke-width:2.39201;stroke-miterlimit:4;stroke-dasharray:none" /><polygon
     points="64,25.586 61,28.586 61,32 62,32 66,32 67,32 67,28.586 "
     id="polygon6"
     transform="matrix(0.48143664,0,0,0.4047436,-12.311945,-8.5275076)"
     style="fill:#b3b3b3;fill-opacity:1;stroke:#666666;stroke-width:2.26538;stroke-opacity:1" /><path
     d="M 10.130798,4.528637 H 5.8684211 C 4.5622381,4.528637 3.5,5.5720873 3.5,6.8551677 V 21.500005 H 5.8684211 V 7.6306781 c 0,-0.4276928 0.3540801,-0.7755104 0.7894737,-0.7755104 h 2.683429 c 0.435394,0 0.7894742,0.3478176 0.7894742,0.7755104 V 19.173474 c 0,1.283082 1.062236,2.326531 2.368421,2.326531 h 4.634653 c 1.306186,0 2.38196,-1.04352 2.368424,-2.326531 v -2.714287 h -2.368424 v 1.938777 c 0,0.427693 -0.354078,0.77551 -0.789473,0.77551 h -3.055706 c -0.435393,0 -0.789474,-0.347817 -0.789474,-0.77551 V 6.8551677 c 0,-1.2830804 -1.062236,-2.3265307 -2.368421,-2.3265307 z"
     id="path8"
     style="fill:url(#linearGradient10307);fill-opacity:1;stroke:#800000;stroke-width:0.999992"
     sodipodi:nodetypes="sssccssssssssccssssss" /></svg>
